<svg width="22" height="22" viewBox="0 0 22 22" fill="none" xmlns="http://www.w3.org/2000/svg">
<path fill-rule="evenodd" clip-rule="evenodd" d="M3.09559 2.15471C2.6071 2.15471 2.2111 2.55071 2.2111 3.03919V5.69264C2.2111 6.18112 2.6071 6.57712 3.09559 6.57712H5.74903C6.23752 6.57712 6.63352 6.18112 6.63352 5.69264V3.03919C6.63352 2.55071 6.23752 2.15471 5.74903 2.15471H3.09559ZM3.09559 0.385742H5.74903C7.21449 0.385742 8.40248 1.57374 8.40248 3.03919V5.69264C8.40248 7.15809 7.21449 8.34609 5.74903 8.34609H3.09559C1.63013 8.34609 0.442139 7.15809 0.442139 5.69264V3.03919C0.442139 1.57374 1.63013 0.385742 3.09559 0.385742ZM12.8249 14.5375H19.0163C20.4818 14.5375 21.6697 15.7254 21.6697 17.1909V18.9599C21.6697 20.4254 20.4818 21.6133 19.0163 21.6133H12.8249C11.3594 21.6133 10.1714 20.4254 10.1714 18.9599V17.1909C10.1714 15.7254 11.3594 14.5375 12.8249 14.5375ZM12.8249 16.3064C12.3364 16.3064 11.9404 16.7024 11.9404 17.1909V18.9599C11.9404 19.4484 12.3364 19.8444 12.8249 19.8444H19.0163C19.5048 19.8444 19.9008 19.4484 19.9008 18.9599V17.1909C19.9008 16.7024 19.5048 16.3064 19.0163 16.3064H12.8249ZM3.09559 10.1151H5.74903C7.21449 10.1151 8.40248 11.303 8.40248 12.7685V18.9599C8.40248 20.4254 7.21449 21.6133 5.74903 21.6133H3.09559C1.63013 21.6133 0.442139 20.4254 0.442139 18.9599V12.7685C0.442139 11.303 1.63013 10.1151 3.09559 10.1151ZM3.09559 11.884C2.6071 11.884 2.2111 12.28 2.2111 12.7685V18.9599C2.2111 19.4484 2.6071 19.8444 3.09559 19.8444H5.74903C6.23752 19.8444 6.63352 19.4484 6.63352 18.9599V12.7685C6.63352 12.28 6.23752 11.884 5.74903 11.884H3.09559ZM19.0163 0.385742C20.4818 0.385742 21.6697 1.57374 21.6697 3.03919V10.1151C21.6697 11.5806 20.4818 12.7685 19.0163 12.7685H12.8249C11.3594 12.7685 10.1714 11.5806 10.1714 10.1151V3.03919C10.1714 1.57374 11.3594 0.385742 12.8249 0.385742H19.0163ZM11.9404 3.03919V10.1151C11.9404 10.6036 12.3364 10.9995 12.8249 10.9995H19.0163C19.5048 10.9995 19.9008 10.6036 19.9008 10.1151V3.03919C19.9008 2.55071 19.5048 2.15471 19.0163 2.15471H12.8249C12.3364 2.15471 11.9404 2.55071 11.9404 3.03919Z" fill=""/>
</svg>
