<svg width="24" height="23" viewBox="0 0 24 23" fill="none" xmlns="http://www.w3.org/2000/svg">
<path d="M9.27592 22.2782C8.2704 22.2782 7.37661 21.4961 7.37661 20.3789C7.37661 19.2616 8.15868 18.4796 9.27592 18.4796C10.3932 18.4796 11.1752 19.2616 11.1752 20.3789C11.1752 21.4961 10.2814 22.2782 9.27592 22.2782ZM21.3421 20.3789C21.3421 19.3734 20.5601 18.4796 19.4428 18.4796C18.3256 18.4796 17.6552 19.3734 17.6552 20.3789C17.6552 21.3844 18.4373 22.2782 19.5545 22.2782C20.6718 22.2782 21.3421 21.3844 21.3421 20.3789ZM9.94626 16.692H18.9959C20.3366 16.692 21.5656 15.7982 21.789 14.4575L23.2414 6.6368C23.2414 6.41336 23.2414 6.07818 23.018 5.85473C22.7945 5.63129 22.5711 5.51956 22.3476 5.51956H7.26488L6.48281 1.60922C6.37109 1.16232 6.03592 0.827148 5.58902 0.827148H1.7904C1.3435 0.827148 0.896606 1.27404 0.896606 1.72094C0.896606 2.16784 1.3435 2.61473 1.7904 2.61473H4.69523L5.4773 6.52508C5.4773 6.52508 5.4773 6.52508 5.4773 6.6368L7.04143 14.4575C7.37661 15.6865 8.49385 16.692 9.94626 16.692C9.94626 16.692 9.83454 16.692 9.94626 16.692ZM21.2304 7.30715L20.0014 14.0106C19.8897 14.4575 19.5545 14.7927 19.1076 14.7927H9.94626C9.49937 14.7927 9.05247 14.4575 9.05247 14.0106L7.60005 7.30715H21.2304Z" fill=""/>
</svg>
