<svg width="20" height="22" viewBox="0 0 20 22" fill="none" xmlns="http://www.w3.org/2000/svg">
<path d="M19.2731 5.18967C19.2731 5.18967 19.2731 5.07794 19.2731 4.96622C19.2731 4.96622 19.2731 4.8545 19.1614 4.8545L16.3683 1.1676C16.1449 0.944151 15.9214 0.720703 15.5862 0.720703H4.41382C4.07865 0.720703 3.8552 0.944151 3.63176 1.1676L0.838653 4.8545C0.838653 4.8545 0.838653 4.96622 0.726929 4.96622C0.726929 4.96622 0.726929 5.07794 0.726929 5.18967C0.726929 5.30139 0.726929 5.30139 0.726929 5.41312V18.4848C0.726929 20.049 1.95589 21.2779 3.52003 21.2779H16.5918C18.1559 21.2779 19.3849 20.049 19.3849 18.4848V5.41312C19.2731 5.30139 19.2731 5.30139 19.2731 5.18967ZM4.86072 2.62001H15.1393L16.5918 4.51932H3.52003L4.86072 2.62001ZM17.4855 18.4848C17.4855 19.0435 17.0387 19.3786 16.5918 19.3786H3.52003C2.96141 19.3786 2.62624 18.9317 2.62624 18.4848V6.30691H17.4855V18.4848ZM10 13.7924C7.43038 13.7924 5.30762 11.6697 5.30762 9.10001C5.30762 8.54139 5.75451 8.20622 6.20141 8.20622C6.64831 8.20622 7.0952 8.65312 7.0952 9.10001C7.0952 10.6642 8.32417 11.8931 9.88831 11.8931C11.4524 11.8931 12.6814 10.6642 12.6814 9.10001C12.6814 8.54139 13.1283 8.20622 13.5752 8.20622C14.0221 8.20622 14.469 8.65312 14.469 9.10001C14.6924 11.6697 12.5697 13.7924 10 13.7924Z" fill=""/>
</svg>
