<svg width="18" height="20" viewBox="0 0 18 20" fill="none" xmlns="http://www.w3.org/2000/svg">
<path d="M16.6539 19.441C16.0954 19.441 15.7603 18.9942 15.7603 18.5474V16.6485C15.7603 15.0847 14.5316 13.856 12.9678 13.856H5.48388C3.92008 13.856 2.69138 15.0847 2.69138 16.6485V18.5474C2.69138 19.1059 2.24458 19.441 1.79778 19.441C1.35098 19.441 0.79248 19.1059 0.79248 18.5474V16.6485C0.79248 14.0794 2.91478 11.9571 5.48388 11.9571H12.9678C15.5369 11.9571 17.6592 14.0794 17.6592 16.6485V18.5474C17.5475 19.1059 17.1007 19.441 16.6539 19.441ZM13.8614 5.47851C13.8614 2.90941 11.7391 0.787109 9.16998 0.787109C6.60088 0.787109 4.47858 2.90941 4.47858 5.47851C4.47858 8.04761 6.60088 10.1699 9.16998 10.1699C11.7391 10.1699 13.8614 8.04761 13.8614 5.47851ZM11.9625 5.47851C11.9625 7.04231 10.7338 8.27101 9.16998 8.27101C7.60618 8.27101 6.37748 7.04231 6.37748 5.47851C6.37748 3.91471 7.60618 2.68601 9.16998 2.68601C10.7338 2.68601 11.9625 4.02641 11.9625 5.47851Z" fill=""/>
</svg>
