<svg width="18" height="22" viewBox="0 0 18 22" fill="none" xmlns="http://www.w3.org/2000/svg">
<path d="M16.8207 1.83794C16.4856 1.72622 16.0387 1.72622 15.8152 1.94967C15.8152 1.94967 15.0331 2.62001 12.6869 2.62001C11.458 2.62001 10.4525 2.17312 9.33521 1.72622C8.10625 1.27932 6.87728 0.720703 5.31314 0.720703C2.29659 0.720703 1.06762 1.72622 0.844176 1.94967C0.732452 2.17312 0.620728 2.39657 0.620728 2.62001V20.2724C0.620728 20.831 1.06762 21.1662 1.51452 21.1662C2.07314 21.1662 2.40831 20.7193 2.40831 20.2724V14.2393C2.85521 14.0159 3.63728 13.7924 5.20142 13.7924C6.43038 13.7924 7.4359 14.2393 8.55314 14.6862C9.78211 15.1331 11.0111 15.6917 12.5752 15.6917C15.5918 15.6917 16.8207 14.6862 16.9325 14.4628C17.0442 14.2393 17.1559 14.0159 17.1559 13.7924V2.62001C17.3793 2.28484 17.1559 1.94967 16.8207 1.83794ZM15.48 13.2338C15.0331 13.4573 14.2511 13.7924 12.6869 13.7924C11.458 13.7924 10.4525 13.3455 9.33521 12.8986C8.10625 12.4517 6.87728 11.8931 5.31314 11.8931C4.08418 11.8931 3.19038 12.0048 2.52004 12.2283V3.17863C2.96693 2.95519 3.749 2.62001 5.31314 2.62001C6.54211 2.62001 7.54762 3.06691 8.66487 3.51381C9.89383 3.9607 11.1228 4.51932 12.6869 4.51932C13.9159 4.51932 14.8097 4.4076 15.48 4.18415V13.2338Z" fill=""/>
</svg>
