<svg width="21" height="21" viewBox="0 0 21 21" fill="none" xmlns="http://www.w3.org/2000/svg">
<path d="M17.535 19.2147C17.01 19.2147 16.695 18.7947 16.695 18.3747V16.5897C16.695 15.1197 15.54 13.9647 14.07 13.9647H7.035C5.565 13.9647 4.41 15.1197 4.41 16.5897V18.3747C4.41 18.8997 3.99 19.2147 3.57 19.2147C3.15 19.2147 2.625 18.8997 2.625 18.3747V16.5897C2.625 14.1747 4.62 12.1797 7.035 12.1797H14.07C16.485 12.1797 18.48 14.1747 18.48 16.5897V18.3747C18.375 18.8997 17.955 19.2147 17.535 19.2147ZM14.91 6.08969C14.91 3.67469 12.915 1.67969 10.5 1.67969C8.085 1.67969 6.09 3.67469 6.09 6.08969C6.09 8.50469 8.085 10.4997 10.5 10.4997C12.915 10.4997 14.91 8.50469 14.91 6.08969ZM13.125 6.08969C13.125 7.55969 11.97 8.71469 10.5 8.71469C9.03 8.71469 7.875 7.55969 7.875 6.08969C7.875 4.61969 9.03 3.46469 10.5 3.46469C11.97 3.46469 13.125 4.72469 13.125 6.08969Z" fill=""/>
</svg>
